<svg width="253" height="140" viewBox="0 0 253 140" fill="none" xmlns="http://www.w3.org/2000/svg">
<path d="M21.6974 24.2727V97H6.32102V24.2727H21.6974ZM58.9222 98.0653C53.3114 98.0653 48.4819 96.929 44.4336 94.6562C40.409 92.3598 37.3076 89.1165 35.1296 84.9261C32.9516 80.7121 31.8626 75.7287 31.8626 69.9759C31.8626 64.3651 32.9516 59.4408 35.1296 55.2031C37.3076 50.9654 40.3735 47.6629 44.3271 45.2955C48.3043 42.928 52.9682 41.7443 58.3185 41.7443C61.917 41.7443 65.2669 42.3243 68.3683 43.4844C71.4933 44.6207 74.2158 46.3371 76.5359 48.6335C78.8796 50.9299 80.7025 53.8182 82.0046 57.2983C83.3067 60.7547 83.9577 64.803 83.9577 69.4432V73.598H37.8995V64.223H69.7177C69.7177 62.045 69.2442 60.1155 68.2972 58.4347C67.3503 56.7538 66.0363 55.4399 64.3555 54.4929C62.6983 53.5223 60.7688 53.0369 58.5671 53.0369C56.2707 53.0369 54.2347 53.5696 52.4592 54.6349C50.7073 55.6766 49.3342 57.0852 48.3398 58.8608C47.3455 60.6127 46.8365 62.5658 46.8129 64.7202V73.6335C46.8129 76.3324 47.31 78.6643 48.3043 80.6293C49.3223 82.5942 50.7546 84.1094 52.6012 85.1747C54.4478 86.2401 56.6377 86.7727 59.1708 86.7727C60.8517 86.7727 62.3905 86.536 63.7873 86.0625C65.1841 85.589 66.3796 84.8788 67.3739 83.9318C68.3683 82.9848 69.1258 81.8248 69.6467 80.4517L83.6381 81.375C82.9279 84.7367 81.4719 87.6723 79.2702 90.1818C77.0922 92.6676 74.275 94.6089 70.8185 96.0057C67.3858 97.3788 63.4203 98.0653 58.9222 98.0653ZM108.958 24.2727V97H93.8299V24.2727H108.958ZM166.282 24.2727H181.658V71.5028C181.658 76.8059 180.392 81.446 177.859 85.4233C175.349 89.4006 171.834 92.5019 167.312 94.7273C162.79 96.929 157.522 98.0298 151.509 98.0298C145.472 98.0298 140.193 96.929 135.671 94.7273C131.149 92.5019 127.634 89.4006 125.124 85.4233C122.615 81.446 121.36 76.8059 121.36 71.5028V24.2727H136.737V70.1889C136.737 72.9588 137.34 75.4209 138.548 77.5753C139.779 79.7296 141.507 81.4223 143.732 82.6534C145.958 83.8845 148.55 84.5 151.509 84.5C154.492 84.5 157.085 83.8845 159.286 82.6534C161.512 81.4223 163.228 79.7296 164.435 77.5753C165.666 75.4209 166.282 72.9588 166.282 70.1889V24.2727ZM194.309 97V24.2727H223.002C228.519 24.2727 233.218 25.3262 237.1 27.4332C240.983 29.5166 243.942 32.4167 245.978 36.1335C248.038 39.8267 249.068 44.0881 249.068 48.9176C249.068 53.7472 248.026 58.0085 245.943 61.7017C243.859 65.3949 240.841 68.2713 236.887 70.331C232.958 72.3906 228.199 73.4205 222.612 73.4205H204.324V61.098H220.126C223.085 61.098 225.524 60.589 227.441 59.571C229.383 58.5294 230.827 57.0971 231.774 55.2741C232.744 53.4276 233.23 51.3087 233.23 48.9176C233.23 46.5028 232.744 44.3958 231.774 42.5966C230.827 40.7737 229.383 39.3651 227.441 38.3707C225.5 37.3527 223.038 36.8438 220.055 36.8438H209.686V97H194.309Z" fill="#DD052B"/>
<path d="M6.02273 132V108.727H21.7045V112.784H10.9432V118.33H20.8977V122.386H10.9432V127.943H21.75V132H6.02273ZM29.571 114.545L32.7756 120.648L36.0597 114.545H41.0256L35.9688 123.273L41.1619 132H36.2188L32.7756 125.966L29.3892 132H24.3892L29.571 123.273L24.571 114.545H29.571ZM51.1619 132.341C49.3741 132.341 47.8362 131.962 46.5483 131.205C45.268 130.439 44.2831 129.379 43.5938 128.023C42.9119 126.667 42.571 125.106 42.571 123.341C42.571 121.553 42.9157 119.985 43.6051 118.636C44.3021 117.28 45.2907 116.223 46.571 115.466C47.8513 114.701 49.3741 114.318 51.1392 114.318C52.6619 114.318 53.9953 114.595 55.1392 115.148C56.2831 115.701 57.1884 116.477 57.8551 117.477C58.5218 118.477 58.8892 119.652 58.9574 121H54.3892C54.2604 120.129 53.9195 119.428 53.3665 118.898C52.821 118.36 52.1051 118.091 51.2188 118.091C50.4688 118.091 49.8134 118.295 49.2528 118.705C48.6998 119.106 48.268 119.693 47.9574 120.466C47.6468 121.239 47.4915 122.174 47.4915 123.273C47.4915 124.386 47.643 125.333 47.946 126.114C48.2566 126.894 48.6922 127.489 49.2528 127.898C49.8134 128.307 50.4688 128.511 51.2188 128.511C51.7718 128.511 52.268 128.398 52.7074 128.17C53.1544 127.943 53.5218 127.614 53.8097 127.182C54.1051 126.742 54.2983 126.216 54.3892 125.602H58.9574C58.8816 126.936 58.518 128.11 57.8665 129.125C57.2225 130.133 56.3324 130.92 55.196 131.489C54.0597 132.057 52.715 132.341 51.1619 132.341ZM70.0114 132.341C68.2159 132.341 66.6705 131.977 65.375 131.25C64.0871 130.515 63.0947 129.477 62.3977 128.136C61.7008 126.788 61.3523 125.193 61.3523 123.352C61.3523 121.557 61.7008 119.981 62.3977 118.625C63.0947 117.269 64.0758 116.212 65.3409 115.455C66.6136 114.697 68.1061 114.318 69.8182 114.318C70.9697 114.318 72.0417 114.504 73.0341 114.875C74.0341 115.239 74.9053 115.788 75.6477 116.523C76.3977 117.258 76.9811 118.182 77.3977 119.295C77.8144 120.402 78.0227 121.697 78.0227 123.182V124.511H63.2841V121.511H73.4659C73.4659 120.814 73.3144 120.197 73.0114 119.659C72.7083 119.121 72.2879 118.701 71.75 118.398C71.2197 118.087 70.6023 117.932 69.8977 117.932C69.1629 117.932 68.5114 118.102 67.9432 118.443C67.3826 118.777 66.9432 119.227 66.625 119.795C66.3068 120.356 66.1439 120.981 66.1364 121.67V124.523C66.1364 125.386 66.2955 126.133 66.6136 126.761C66.9394 127.39 67.3977 127.875 67.9886 128.216C68.5795 128.557 69.2803 128.727 70.0909 128.727C70.6288 128.727 71.1212 128.652 71.5682 128.5C72.0152 128.348 72.3977 128.121 72.7159 127.818C73.0341 127.515 73.2765 127.144 73.4432 126.705L77.9205 127C77.6932 128.076 77.2273 129.015 76.5227 129.818C75.8258 130.614 74.9242 131.235 73.8182 131.682C72.7197 132.121 71.4508 132.341 70.0114 132.341ZM86.0227 108.727V132H81.1818V108.727H86.0227ZM100.295 138.545C99.6818 138.545 99.1061 138.496 98.5682 138.398C98.0379 138.307 97.5985 138.189 97.25 138.045L98.3409 134.432C98.9091 134.606 99.4205 134.701 99.875 134.716C100.337 134.731 100.735 134.625 101.068 134.398C101.409 134.17 101.686 133.784 101.898 133.239L102.182 132.5L95.9205 114.545H101.011L104.625 127.364H104.807L108.455 114.545H113.58L106.795 133.886C106.47 134.826 106.027 135.644 105.466 136.341C104.913 137.045 104.212 137.587 103.364 137.966C102.515 138.352 101.492 138.545 100.295 138.545ZM123.381 132.341C121.616 132.341 120.089 131.966 118.801 131.216C117.521 130.458 116.532 129.405 115.835 128.057C115.138 126.701 114.79 125.129 114.79 123.341C114.79 121.538 115.138 119.962 115.835 118.614C116.532 117.258 117.521 116.205 118.801 115.455C120.089 114.697 121.616 114.318 123.381 114.318C125.146 114.318 126.669 114.697 127.949 115.455C129.237 116.205 130.229 117.258 130.926 118.614C131.623 119.962 131.972 121.538 131.972 123.341C131.972 125.129 131.623 126.701 130.926 128.057C130.229 129.405 129.237 130.458 127.949 131.216C126.669 131.966 125.146 132.341 123.381 132.341ZM123.403 128.591C124.206 128.591 124.877 128.364 125.415 127.909C125.953 127.447 126.358 126.818 126.631 126.023C126.911 125.227 127.051 124.322 127.051 123.307C127.051 122.292 126.911 121.386 126.631 120.591C126.358 119.795 125.953 119.167 125.415 118.705C124.877 118.242 124.206 118.011 123.403 118.011C122.593 118.011 121.911 118.242 121.358 118.705C120.813 119.167 120.4 119.795 120.119 120.591C119.847 121.386 119.71 122.292 119.71 123.307C119.71 124.322 119.847 125.227 120.119 126.023C120.4 126.818 120.813 127.447 121.358 127.909C121.911 128.364 122.593 128.591 123.403 128.591ZM146.312 124.568V114.545H151.153V132H146.506V128.83H146.324C145.93 129.852 145.275 130.674 144.358 131.295C143.449 131.917 142.339 132.227 141.028 132.227C139.862 132.227 138.835 131.962 137.949 131.432C137.063 130.902 136.369 130.148 135.869 129.17C135.377 128.193 135.127 127.023 135.119 125.659V114.545H139.96V124.795C139.968 125.826 140.244 126.64 140.79 127.239C141.335 127.837 142.066 128.136 142.983 128.136C143.566 128.136 144.112 128.004 144.619 127.739C145.127 127.466 145.536 127.064 145.847 126.534C146.165 126.004 146.32 125.348 146.312 124.568ZM155.026 132V114.545H159.719V117.591H159.901C160.219 116.508 160.753 115.689 161.503 115.136C162.253 114.576 163.116 114.295 164.094 114.295C164.336 114.295 164.598 114.311 164.878 114.341C165.158 114.371 165.404 114.413 165.616 114.466V118.761C165.389 118.693 165.075 118.633 164.673 118.58C164.272 118.527 163.904 118.5 163.571 118.5C162.859 118.5 162.223 118.655 161.662 118.966C161.109 119.269 160.67 119.693 160.344 120.239C160.026 120.784 159.866 121.413 159.866 122.125V132H155.026ZM187.943 108.727V132H183.023V108.727H187.943ZM199.855 132.341C198.06 132.341 196.514 131.977 195.219 131.25C193.931 130.515 192.938 129.477 192.241 128.136C191.545 126.788 191.196 125.193 191.196 123.352C191.196 121.557 191.545 119.981 192.241 118.625C192.938 117.269 193.92 116.212 195.185 115.455C196.457 114.697 197.95 114.318 199.662 114.318C200.813 114.318 201.885 114.504 202.878 114.875C203.878 115.239 204.749 115.788 205.491 116.523C206.241 117.258 206.825 118.182 207.241 119.295C207.658 120.402 207.866 121.697 207.866 123.182V124.511H193.128V121.511H203.31C203.31 120.814 203.158 120.197 202.855 119.659C202.552 119.121 202.132 118.701 201.594 118.398C201.063 118.087 200.446 117.932 199.741 117.932C199.007 117.932 198.355 118.102 197.787 118.443C197.226 118.777 196.787 119.227 196.469 119.795C196.151 120.356 195.988 120.981 195.98 121.67V124.523C195.98 125.386 196.139 126.133 196.457 126.761C196.783 127.39 197.241 127.875 197.832 128.216C198.423 128.557 199.124 128.727 199.935 128.727C200.473 128.727 200.965 128.652 201.412 128.5C201.859 128.348 202.241 128.121 202.56 127.818C202.878 127.515 203.12 127.144 203.287 126.705L207.764 127C207.537 128.076 207.071 129.015 206.366 129.818C205.67 130.614 204.768 131.235 203.662 131.682C202.563 132.121 201.295 132.341 199.855 132.341ZM215.866 108.727V132H211.026V108.727H215.866ZM229.028 114.545V118.182H218.517V114.545H229.028ZM220.903 110.364H225.744V126.636C225.744 127.083 225.813 127.432 225.949 127.682C226.085 127.924 226.275 128.095 226.517 128.193C226.767 128.292 227.055 128.341 227.381 128.341C227.608 128.341 227.835 128.322 228.062 128.284C228.29 128.239 228.464 128.205 228.585 128.182L229.347 131.784C229.104 131.86 228.763 131.947 228.324 132.045C227.884 132.152 227.35 132.216 226.722 132.239C225.555 132.284 224.532 132.129 223.653 131.773C222.782 131.417 222.104 130.864 221.619 130.114C221.134 129.364 220.896 128.417 220.903 127.273V110.364ZM246.486 119.523L242.054 119.795C241.978 119.417 241.815 119.076 241.565 118.773C241.315 118.462 240.986 118.216 240.577 118.034C240.175 117.845 239.694 117.75 239.134 117.75C238.384 117.75 237.751 117.909 237.236 118.227C236.721 118.538 236.463 118.955 236.463 119.477C236.463 119.894 236.63 120.246 236.963 120.534C237.296 120.822 237.868 121.053 238.679 121.227L241.838 121.864C243.535 122.212 244.8 122.773 245.634 123.545C246.467 124.318 246.884 125.333 246.884 126.591C246.884 127.735 246.546 128.739 245.872 129.602C245.205 130.466 244.289 131.14 243.122 131.625C241.963 132.102 240.626 132.341 239.111 132.341C236.8 132.341 234.959 131.86 233.588 130.898C232.224 129.928 231.425 128.61 231.19 126.943L235.952 126.693C236.096 127.398 236.444 127.936 236.997 128.307C237.55 128.67 238.259 128.852 239.122 128.852C239.971 128.852 240.652 128.689 241.168 128.364C241.69 128.03 241.955 127.602 241.963 127.08C241.955 126.64 241.77 126.28 241.406 126C241.043 125.712 240.482 125.492 239.724 125.341L236.702 124.739C234.997 124.398 233.728 123.807 232.895 122.966C232.069 122.125 231.656 121.053 231.656 119.75C231.656 118.629 231.959 117.663 232.565 116.852C233.179 116.042 234.039 115.417 235.145 114.977C236.259 114.538 237.562 114.318 239.054 114.318C241.259 114.318 242.993 114.784 244.259 115.716C245.531 116.648 246.274 117.917 246.486 119.523Z" fill="#DD052B"/>
</svg>
